<?xml version="1.0" encoding="UTF-8" standalone="no"?>
<svg
   id="logo"
   viewBox="0 0 2100 700"
   version="1.1"
   sodipodi:docname="axon-light.svg"
   width="2100"
   height="700"
   inkscape:version="1.4.2 (ebf0e940, 2025-05-08)"
   xmlns:inkscape="http://www.inkscape.org/namespaces/inkscape"
   xmlns:sodipodi="http://sodipodi.sourceforge.net/DTD/sodipodi-0.dtd"
   xmlns="http://www.w3.org/2000/svg"
   xmlns:svg="http://www.w3.org/2000/svg">
  <sodipodi:namedview
     id="namedview24"
     pagecolor="#505050"
     bordercolor="#eeeeee"
     borderopacity="1"
     inkscape:showpageshadow="0"
     inkscape:pageopacity="0"
     inkscape:pagecheckerboard="0"
     inkscape:deskcolor="#505050"
     inkscape:zoom="0.155694"
     inkscape:cx="3.2114275"
     inkscape:cy="693.66834"
     inkscape:window-width="1920"
     inkscape:window-height="1027"
     inkscape:window-x="1728"
     inkscape:window-y="25"
     inkscape:window-maximized="0"
     inkscape:current-layer="logo" />
  <defs
     id="defs17">
    <style
       id="style1">
      .cls-1 {
        fill: none;
      }

      .cls-2 {
        fill: url(#linear-gradient-5);
      }

      .cls-3 {
        fill: url(#linear-gradient-6);
      }

      .cls-4 {
        fill: url(#linear-gradient-4);
      }

      .cls-5 {
        fill: url(#linear-gradient-3);
      }

      .cls-6 {
        fill: url(#linear-gradient-2);
      }

      .cls-7 {
        fill: url(#linear-gradient);
      }

      .cls-8 {
        fill-rule: evenodd;
      }

      .cls-9 {
        clip-path: url(#clippath);
      }
    </style>
    <clipPath
       id="clippath">
      <rect
         class="cls-1"
         x="480"
         y="450"
         width="2025"
         height="540"
         id="rect1" />
    </clipPath>
    <linearGradient
       id="linear-gradient"
       x1="916.20001"
       y1="574.06"
       x2="583.97998"
       y2="574.06"
       gradientTransform="matrix(1,0,0,-1,0,1440.11)"
       gradientUnits="userSpaceOnUse">
      <stop
         offset="0"
         stop-color="#0d7cff"
         id="stop1" />
      <stop
         offset=".5"
         stop-color="#2a3efa"
         id="stop2" />
      <stop
         offset="1"
         stop-color="#2f1ad5"
         id="stop3" />
    </linearGradient>
    <linearGradient
       id="linear-gradient-2"
       x1="988.03998"
       y1="487.39999"
       x2="884.79999"
       y2="668.78003"
       gradientTransform="matrix(1,0,0,-1,0,1440.11)"
       gradientUnits="userSpaceOnUse">
      <stop
         offset="0"
         stop-color="#23d8ff"
         id="stop4" />
      <stop
         offset="1"
         stop-color="#0274ff"
         id="stop5" />
    </linearGradient>
    <linearGradient
       id="linear-gradient-3"
       x1="617.07001"
       y1="671.62"
       x2="507.17999"
       y2="479.67001"
       gradientTransform="matrix(1,0,0,-1,0,1440.11)"
       gradientUnits="userSpaceOnUse">
      <stop
         offset="0"
         stop-color="#3e42ff"
         id="stop6" />
      <stop
         offset="1"
         stop-color="#5342fb"
         id="stop7" />
    </linearGradient>
    <linearGradient
       id="linear-gradient-4"
       x1="757.14001"
       y1="893.45001"
       x2="964.16998"
       y2="527.64001"
       gradientTransform="matrix(1,0,0,-1,0,1440.11)"
       gradientUnits="userSpaceOnUse">
      <stop
         offset="0"
         stop-color="#3a26ed"
         id="stop8" />
      <stop
         offset=".5"
         stop-color="#3953ff"
         id="stop9" />
      <stop
         offset=".8"
         stop-color="#1e90ff"
         id="stop10" />
      <stop
         offset="1"
         stop-color="#19b6ff"
         id="stop11" />
    </linearGradient>
    <linearGradient
       id="linear-gradient-5"
       x1="744.19"
       y1="893.65997"
       x2="543.19"
       y2="541.62"
       gradientTransform="matrix(1,0,0,-1,0,1440.11)"
       gradientUnits="userSpaceOnUse">
      <stop
         offset="0"
         stop-color="#029aff"
         id="stop12" />
      <stop
         offset=".2"
         stop-color="#0185ff"
         id="stop13" />
      <stop
         offset=".5"
         stop-color="#0847ff"
         id="stop14" />
      <stop
         offset="1"
         stop-color="#480fe9"
         id="stop15" />
    </linearGradient>
    <linearGradient
       id="linear-gradient-6"
       x1="786.26001"
       y1="948.47998"
       x2="714.21997"
       y2="840.34003"
       gradientTransform="matrix(1,0,0,-1,0,1440.11)"
       gradientUnits="userSpaceOnUse">
      <stop
         offset="0"
         stop-color="#01e6ff"
         id="stop16" />
      <stop
         offset="1"
         stop-color="#1093ff"
         id="stop17" />
    </linearGradient>
  </defs>
  <g
     class="cls-9"
     clip-path="url(#clippath)"
     id="g24"
     transform="translate(-460.3,-366.315)">
    <g
       id="g23">
      <path
         class="cls-8"
         d="m 1438.87,547.54 h -73.51 L 1222.5,885.09 h 73.12 l 29.4,-69.47 h 154.2 l 29.39,69.47 h 73.12 z m -36.76,85.91 -48.52,114.66 h 97.05 z m 628.22,-29.65 c -80.42,0 -145.84,65.6 -145.84,146.27 0,80.67 65.42,146.28 145.84,146.28 80.42,0 145.84,-65.61 145.84,-146.28 0,-80.67 -65.43,-146.27 -145.84,-146.27 z m 84.13,146.26 c 0,46.61 -37.68,84.38 -84.13,84.38 -46.45,0 -84.14,-37.77 -84.14,-84.38 0,-46.61 37.68,-84.39 84.14,-84.39 46.46,0 84.13,37.77 84.13,84.39 z m 386.91,-20.57 h 0.1 v 155.6 h -67.3 V 733.21 c 0,-37.17 -29.56,-67.51 -67.3,-67.51 -37.74,0 -67.31,31.85 -67.31,65.42 v 153.97 h -67.3 V 615.06 h 67.3 v 22.5 c 19.7,-19.62 47.09,-30.71 78.58,-30.71 71.73,0 120.74,49.07 123.23,122.64 z m -632.25,155.6 -93.66,-134.16 94.86,-135.89 h -82.18 l -53.77,77.05 -53.78,-77.05 h -82.18 l 94.87,135.89 -93.66,134.16 h 82.16 l 52.57,-75.31 52.57,75.31 z"
         id="path17" />
      <path
         class="cls-7"
         d="m 749.64,785.56 c -25.26,-0.04 -50.53,1.97 -75.64,6.06 l -90.02,154.84 c 52.23,-27.32 108.96,-39.04 165.94,-38.99 57.17,-0.05 113.9,11.56 166.28,39.08 L 826.25,791.86 c -25.23,-4.16 -50.85,-6.3 -76.6,-6.3 v 0 z"
         id="path18"
         style="fill:url(#linear-gradient)" />
      <path
         class="cls-6"
         d="m 826.23,791.85 c 56.09,9.23 110.32,28.4 160.28,56.09 48.09,26.66 39.35,80.51 5.52,102.47 l -5.72,3.28 c -17.28,8.68 -39.81,9.45 -64.21,-3.95 -1.97,-1.09 -3.95,-2.14 -5.93,-3.19 l -89.95,-154.7 v 0 z"
         id="path19"
         style="fill:url(#linear-gradient-2)" />
      <path
         class="cls-5"
         d="m 674,791.62 c -54.74,8.91 -108.78,27.64 -160.52,56.32 -47.74,26.47 -39.46,79.77 -6.22,101.99 l 7.18,4.13 c 17.17,8.32 39.39,8.88 63.42,-4.33 2.03,-1.11 4.07,-2.2 6.12,-3.28 z"
         id="path20"
         style="fill:url(#linear-gradient-3)" />
      <path
         class="cls-4"
         d="m 802.62,570.42 c 10.87,-18.69 10.5,-40.76 0.99,-58.51 l 207.99,357.72 c 2.41,4.14 4.26,8.45 5.59,12.85 -4.43,-13.12 -14.22,-25.41 -30.66,-34.52 -49.96,-27.69 -104.21,-46.87 -160.28,-56.1 l -76.18,-131.01 52.55,-90.4 z"
         id="path21"
         style="fill:url(#linear-gradient-4)" />
      <path
         class="cls-2"
         d="m 750.05,660.82 -52.56,-90.4 c -10.87,-18.69 -10.5,-40.76 -0.99,-58.51 L 488.51,869.63 c -1.95,3.35 -3.53,6.8 -4.76,10.31 4.79,-12.16 14.36,-23.46 29.73,-31.99 51.74,-28.7 105.77,-47.43 160.52,-56.33 z"
         id="path22"
         style="fill:url(#linear-gradient-5)" />
      <path
         class="cls-3"
         d="m 803.6,511.91 c 9.53,17.75 9.89,39.82 -0.98,58.51 l -52.56,90.4 -52.57,-90.4 c -10.86,-18.69 -10.5,-40.76 -0.97,-58.51 l 1.01,-1.74 c 11.21,-19.29 31.56,-30.09 52.49,-30.13 20.96,0 41.34,10.81 52.57,30.13 z"
         id="path23"
         style="fill:url(#linear-gradient-6)" />
    </g>
  </g>
</svg>
